<svg xmlns="http://www.w3.org/2000/svg" viewBox="0 0 74.85796 74.85791">
  <defs>
    <style>
      .cls-1 {
        fill: #f8f7fc;
      }

      .cls-2 {
        fill: #5588e6;
      }

      .cls-3 {
        fill: #2af6ff;
        stroke-width: 3px;
      }

      .cls-3, .cls-4 {
        stroke: #5588e6;
        stroke-linecap: round;
        stroke-linejoin: round;
      }

      .cls-4 {
        fill: none;
        stroke-width: 2.8px;
      }
    </style>
  </defs>
  <title>Recurso 13</title>
  <g id="Capa_2" data-name="Capa 2">
    <g id="Capa_1-2" data-name="Capa 1">
      <g>
        <g>
          <rect class="cls-1" x="15.64033" y="1.39999" width="57.81758" height="57.81758"/>
          <path class="cls-2" d="M73.4579,60.61755H15.64028a1.4,1.4,0,0,1-1.4-1.4V1.4a1.4,1.4,0,0,1,1.4-1.4H73.4579a1.4,1.4,0,0,1,1.4,1.4v57.8175A1.4,1.4,0,0,1,73.4579,60.61755Zm-56.4176-2.8H72.05788V2.8H17.0403Z"/>
        </g>
        <g>
          <path class="cls-1" d="M1.4,73.45788,1.52569,15.508,15.62754,1.40615s-.067,57.89123-.02711,57.85132L1.4,73.45788"/>
          <path class="cls-2" d="M1.39968,74.85791A1.40018,1.40018,0,0,1,0,73.45483L.12563,15.505a1.40072,1.40072,0,0,1,.41-.98694L14.63759.41614a1.40009,1.40009,0,0,1,2.39.99158c-.02258,19.45056-.0575,56.39819-.02954,57.76794a1.40055,1.40055,0,0,1-.40759,1.07178L2.39,74.44788A1.39989,1.39989,0,0,1,1.39968,74.85791ZM2.92446,16.08923,2.80739,70.07068,14.20412,58.674c-.01221-.47668-.01294-1.09509-.01392-1.90527l-.00232-6.55762c.00073-5.42456.00537-12.65588.01123-19.8866l.02515-25.53516Z"/>
        </g>
        <path class="cls-3" d="M30.15615,14.9967h12.426c11.41736,0,18.06592,6.60278,18.06592,15.86511v.09167c0,9.26221-6.74036,16.14014-18.24927,16.14014H30.15615Zm8.89539,7.84082V39.20691h3.62231c5.36475,0,8.89551-2.93457,8.89551-8.11584v-.09167c0-5.1355-3.53076-8.16187-8.89551-8.16187Z"/>
        <g>
          <polygon class="cls-1" points="1.4 73.458 59.613 73.458 73.458 59.218 15.885 59.012 1.4 73.458"/>
          <path class="cls-2" d="M59.61305,74.85791H1.4a1.4,1.4,0,0,1-.98865-2.39136L14.8965,58.02075a1.35312,1.35312,0,0,1,.99365-.40869l57.57275.20544a1.4,1.4,0,0,1,.99878,2.376L60.61684,74.43384A1.39986,1.39986,0,0,1,59.61305,74.85791Zm-54.82666-2.8H59.02162l11.134-11.45215-53.69385-.19153Z"/>
        </g>
        <path class="cls-4" d="M73.45791,59.25747"/>
      </g>
    </g>
  </g>
</svg>
